<svg width="64" height="64" viewBox="0 0 64 64" fill="none" xmlns="http://www.w3.org/2000/svg">
<path fill-rule="evenodd" clip-rule="evenodd" d="M20.047 13H20C18.9645 13 18.1127 13.787 18.0103 14.7955C18.0035 14.8627 18 14.931 18 15V31C18 32.1046 18.8954 33 20 33C21.1046 33 22 32.1046 22 31V25.9943C22.7949 25.987 23.542 25.9704 24.2303 25.9327L27.2111 31.8944C27.7051 32.8824 28.9065 33.2828 29.8944 32.7889C30.8824 32.2949 31.2828 31.0935 30.7889 30.1056L28.3072 25.1423C29.2352 24.7311 30.0593 24.0983 30.6409 23.1368C31.2842 22.0734 31.5 20.8211 31.5 19.5C31.5 18.1789 31.2842 16.9266 30.6409 15.8632C29.9683 14.7514 28.9716 14.0791 27.8649 13.6807C26.8105 13.3011 25.5973 13.1475 24.344 13.0738C23.0899 13 21.6348 13 20.047 13ZM24.1091 17.0668C23.4792 17.0298 22.7812 17.0133 22 17.0059V21.9941C22.7812 21.9867 23.4792 21.9702 24.1091 21.9331C25.2465 21.8662 26.002 21.7387 26.5101 21.5557C26.9659 21.3917 27.1254 21.2202 27.2184 21.0664C27.3408 20.8642 27.5 20.429 27.5 19.5C27.5 18.571 27.3408 18.1358 27.2184 17.9336C27.1254 17.7798 26.9659 17.6083 26.5101 17.4442C26.002 17.2613 25.2465 17.1337 24.1091 17.0668Z" fill="black"/>
<path d="M18 40C18 41.1046 18.8954 42 20 42H44C45.1046 42 46 41.1046 46 40C46 38.8954 45.1046 38 44 38H20C18.8954 38 18 38.8954 18 40Z" fill="black"/>
<path d="M20 51C18.8954 51 18 50.1046 18 49C18 47.8954 18.8954 47 20 47H44C45.1046 47 46 47.8954 46 49C46 50.1046 45.1046 51 44 51H20Z" fill="black"/>
<path fill-rule="evenodd" clip-rule="evenodd" d="M12 1C9.79086 1 8 2.79086 8 5V59C8 61.2091 9.79086 63 12 63H52C54.2091 63 56 61.2091 56 59V17.7069C56 16.6165 55.5549 15.5734 54.7676 14.819L41.5082 2.11205C40.7636 1.39841 39.772 1 38.7406 1H12ZM52 59V20H39C37.8954 20 37 19.1046 37 18L37 5H12L12 59H52ZM41 7.16526L50.2189 16H41V7.16526Z" fill="black"/>
</svg>
