<svg width="64" height="64" viewBox="0 0 64 64" fill="none" xmlns="http://www.w3.org/2000/svg">
<path d="M32.0001 34C28.0533 34 24.3384 35.0921 21.5026 38.32C20.7736 39.1498 19.5099 39.2315 18.68 38.5025C17.8502 37.7735 17.7685 36.5098 18.4976 35.68C22.3148 31.335 27.2881 30 32.0001 30C36.712 30 41.6853 31.335 45.5026 35.68C46.2316 36.5098 46.1499 37.7735 45.3201 38.5025C44.4903 39.2315 43.2266 39.1498 42.4976 38.32C39.6617 35.0921 35.9468 34 32.0001 34Z" fill="black"/>
<path d="M32.0001 42C29.8748 42 27.9758 42.5956 26.5208 44.2989C25.8035 45.1388 24.541 45.2382 23.7011 44.5208C22.8612 43.8034 22.7619 42.5409 23.4793 41.701C25.9054 38.8607 29.0744 38 32.0001 38C34.9257 38 38.0948 38.8607 40.5208 41.701C41.2382 42.5409 41.1389 43.8034 40.299 44.5208C39.4591 45.2382 38.1967 45.1388 37.4793 44.299C36.0244 42.5956 34.1254 42 32.0001 42Z" fill="black"/>
<path d="M35.0001 48.5C35.0001 50.1569 33.6569 51.5 32.0001 51.5C30.3432 51.5 29.0001 50.1569 29.0001 48.5C29.0001 46.8431 30.3432 45.5 32.0001 45.5C33.6569 45.5 35.0001 46.8431 35.0001 48.5Z" fill="black"/>
<path fill-rule="evenodd" clip-rule="evenodd" d="M0.463608 28.2804C1.17074 29.1289 2.43187 29.2436 3.28042 28.5364L8.00005 24.6034L8.00005 60C8.00005 62.2091 9.79091 64 12.0001 64L52 64C54.2092 64 56 62.2091 56 60L56 24.6034L60.7197 28.5364C61.5682 29.2436 62.8294 29.1289 63.5365 28.2804C64.2436 27.4318 64.129 26.1707 63.2804 25.4636L33.2804 0.463557C32.5387 -0.154519 31.4614 -0.154519 30.7197 0.463557L0.719681 25.4636C-0.128872 26.1707 -0.243521 27.4318 0.463608 28.2804ZM12.0001 60L12.0001 21.2701L32 4.60342L52 21.2701L52 60L12.0001 60Z" fill="black"/>
</svg>
