<svg width="64" height="64" viewBox="0 0 64 64" fill="none" xmlns="http://www.w3.org/2000/svg">
<path d="M29 53C29 51.3431 30.3431 50 32 50C33.6569 50 35 51.3431 35 53C35 54.6569 33.6569 56 32 56C30.3431 56 29 54.6569 29 53Z" fill="black"/>
<path fill-rule="evenodd" clip-rule="evenodd" d="M19 0C15.6863 0 13 2.68629 13 6L13 58C13 61.3137 15.6863 64 19 64H45C48.3137 64 51 61.3137 51 58L51 6C51 2.68629 48.3137 0 45 0L19 0ZM17 6C17 4.89543 17.8954 4 19 4H23V5C23 6.10457 23.8954 7 25 7L39 7C40.1046 7 41 6.10457 41 5V4L45 4C46.1046 4 47 4.89543 47 6L47 58C47 59.1046 46.1046 60 45 60L19 60C17.8954 60 17 59.1046 17 58L17 6Z" fill="black"/>
</svg>
