<svg width="24" height="24" viewBox="0 0 24 24" fill="none" xmlns="http://www.w3.org/2000/svg">
<path fill-rule="evenodd" clip-rule="evenodd" d="M8 9C8 6.79086 9.79086 5 12 5C14.2091 5 16 6.79086 16 9C16 11.2091 14.2091 13 12 13C9.79086 13 8 11.2091 8 9ZM12 7C10.8954 7 10 7.89543 10 9C10 10.1046 10.8954 11 12 11C13.1046 11 14 10.1046 14 9C14 7.89543 13.1046 7 12 7Z" fill="black"/>
<path fill-rule="evenodd" clip-rule="evenodd" d="M12 0C7.06403 0 3 3.86755 3 8.71429C3 11.6589 4.66876 14.1476 6.41135 15.9575C8.17052 17.7847 10.1394 19.0611 11.0255 19.5925C11.629 19.9544 12.371 19.9544 12.9745 19.5925C13.8606 19.0611 15.8295 17.7847 17.5886 15.9575C19.3312 14.1476 21 11.6589 21 8.71429C21 3.86755 16.936 0 12 0ZM5 8.71429C5 5.04005 8.09942 2 12 2C15.9006 2 19 5.04005 19 8.71429C19 10.8952 17.7497 12.9066 16.1479 14.5704C14.5967 16.1815 12.839 17.3375 12 17.8447C11.161 17.3375 9.40327 16.1815 7.85213 14.5704C6.25027 12.9066 5 10.8952 5 8.71429Z" fill="black"/>
<path d="M4.32634 18.4453C4.8438 18.2667 5.1222 17.7043 4.94868 17.1838C4.77744 16.6701 4.19306 16.38 3.68014 16.5525C3.28862 16.6854 2.9265 16.9054 2.60982 17.1693C2.08067 17.6102 1.5 18.3689 1.5 19.5C1.5 21.1406 2.95083 22.2495 4.63684 22.9066C6.41857 23.6011 8.92899 24 12 24C15.1349 24 17.6479 23.5814 19.4165 22.8751C21.0905 22.2066 22.5 21.0951 22.5 19.5C22.5 18.3689 21.9193 17.6102 21.3902 17.1693C21.0766 16.908 20.7115 16.6878 20.3241 16.554C19.8047 16.3787 19.2253 16.662 19.0513 17.1838C18.8778 17.7043 19.1562 18.2667 19.6737 18.4453L19.6893 18.4514C19.7088 18.4593 19.7431 18.474 19.7872 18.496C19.8775 18.5412 19.9957 18.6106 20.1098 18.7057C20.3307 18.8898 20.5 19.1311 20.5 19.5C20.5 19.7619 20.2204 20.4005 18.6748 21.0177C17.2239 21.5971 14.9869 22 12 22C9.07101 22 6.83143 21.6154 5.36316 21.0432C3.79917 20.4336 3.5 19.7924 3.5 19.5C3.5 19.1311 3.66933 18.8898 3.89018 18.7057C4.00431 18.6106 4.12253 18.5412 4.21284 18.496C4.25687 18.474 4.29117 18.4593 4.31074 18.4514L4.32634 18.4453Z" fill="black"/>
</svg>
