<svg width="64" height="64" viewBox="0 0 64 64" fill="none" xmlns="http://www.w3.org/2000/svg">
<path d="M22 33C22 31.8954 22.8954 31 24 31L40 31C41.1046 31 42 31.8954 42 33C42 34.1046 41.1046 35 40 35H24C22.8954 35 22 34.1046 22 33Z" fill="#202020"/>
<path d="M24 38C22.8954 38 22 38.8954 22 40C22 41.1046 22.8954 42 24 42H40C41.1046 42 42 41.1046 42 40C42 38.8954 41.1046 38 40 38H24Z" fill="#202020"/>
<path d="M24 45C22.8954 45 22 45.8954 22 47C22 48.1046 22.8954 49 24 49H40C41.1046 49 42 48.1046 42 47C42 45.8954 41.1046 45 40 45H24Z" fill="#202020"/>
<path d="M22 54C22 52.8954 22.8954 52 24 52H40C41.1046 52 42 52.8954 42 54C42 55.1046 41.1046 56 40 56H24C22.8954 56 22 55.1046 22 54Z" fill="#202020"/>
<path fill-rule="evenodd" clip-rule="evenodd" d="M14 9C14 4.02944 18.0294 0 23 0L41 0C45.9706 0 50 4.02944 50 9L50 55C50 59.9706 45.9706 64 41 64H23C18.0294 64 14 59.9706 14 55L14 9ZM23 4L41 4C43.7614 4 46 6.23858 46 9L46 55C46 57.7614 43.7614 60 41 60H23C20.2386 60 18 57.7614 18 55L18 9C18 6.23858 20.2386 4 23 4Z" fill="#202020"/>
</svg>
