<svg width="24" height="24" viewBox="0 0 24 24" fill="none" xmlns="http://www.w3.org/2000/svg">
<path fill-rule="evenodd" clip-rule="evenodd" d="M21.7071 20.2929C22.0976 20.6834 22.0976 21.3166 21.7071 21.7071C21.3166 22.0976 20.6834 22.0976 20.2929 21.7071L14.9056 16.3199C13.551 17.3729 11.8487 18 10 18C5.58172 18 2 14.4183 2 10C2 5.58172 5.58172 2 10 2C14.4183 2 18 5.58172 18 10C18 11.8487 17.3729 13.551 16.3199 14.9056L21.7071 20.2929ZM10 16C13.3137 16 16 13.3137 16 10C16 6.68629 13.3137 4 10 4C6.68629 4 4 6.68629 4 10C4 13.3137 6.68629 16 10 16ZM10 7.5C9.26505 7.5 8.62882 7.78567 8.20688 8.20734C7.81623 8.59773 7.18306 8.59753 6.79266 8.20688C6.40227 7.81623 6.40247 7.18306 6.79312 6.79266C7.59948 5.98683 8.74824 5.5 10 5.5C11.2518 5.5 12.4005 5.98683 13.2069 6.79266C13.5975 7.18306 13.5977 7.81623 13.2073 8.20688C12.8169 8.59753 12.1838 8.59773 11.7931 8.20734C11.3712 7.78567 10.735 7.5 10 7.5Z" fill="black"/>
</svg>
