<svg width="64" height="64" viewBox="0 0 64 64" fill="none" xmlns="http://www.w3.org/2000/svg">
<path d="M36.3281 6.27613L37.1803 8.87669H34.9302L34.6145 6.75692C34.4888 5.91244 33.6845 5.34307 32.8462 5.50509L10.8576 9.75501C10.0239 9.91614 9.4901 10.7365 9.68043 11.564L12.002 21.6575L12.4658 34.4773C12.2618 34.3194 12.0797 34.1489 11.9374 33.967C11.6181 33.559 11.4168 33.0991 11.3318 32.5796L11.3319 32.5795L11.3304 32.571L7.59049 11.9581L7.58724 11.9402L7.58271 11.9226C7.45636 11.4323 7.43749 10.6409 7.79631 9.90866C8.1425 9.20219 8.87002 8.48875 10.3598 8.16685C10.3602 8.16676 10.3606 8.16667 10.3611 8.16658L32.4299 3.52419C33.3696 3.35885 34.1951 3.53916 34.9388 4.06018C35.6885 4.5854 36.142 5.29338 36.3115 6.21123L36.3176 6.24424L36.3281 6.27613Z" fill="black" stroke="black"/>
<path d="M37.5 41.4758H31H20C17.7909 41.4758 16 39.685 16 37.4758V15.8516C16 13.6424 17.7909 11.8516 20 11.8516H42C44.2091 11.8516 46 13.6424 46 15.8516V26.6637V38.0197" stroke="black" stroke-width="3"/>
<path d="M27.4293 30.8695C26.0733 30.8695 24.5613 30.3895 23.6133 29.7895L24.2253 28.2535C25.2933 28.7335 26.4933 29.0815 27.4773 29.0815C28.2453 29.0815 28.6413 28.8775 28.6413 28.4695C28.6413 28.0375 28.1253 27.9775 26.9013 27.7855C24.9933 27.4735 23.8773 26.7415 23.8773 25.2775C23.8773 23.6095 25.3413 22.4455 27.3693 22.4455C28.3173 22.4455 29.5653 22.7095 30.3333 23.0935V25.0855C29.4573 24.5335 28.4613 24.2335 27.5133 24.2335C26.6133 24.2335 26.0493 24.4975 26.0493 24.9655C26.0493 25.4935 26.7693 25.4935 27.9213 25.7215C29.0853 25.9615 30.8253 26.3575 30.8253 28.1695C30.8253 29.7895 29.4573 30.8695 27.4293 30.8695ZM32.1587 30.6055V22.7095H38.3507V24.4375H34.3547V26.1295H37.8107V27.8695H34.3547V30.6055H32.1587Z" fill="black"/>
<g clip-path="url(#clip0_863_10019)">
<path d="M37.6656 44.1731C37.0485 41.6053 36.4607 39.1575 35.8731 36.7106C35.6532 35.7941 35.4223 34.8802 35.2163 33.9604C34.6902 31.6124 36.0717 29.4079 38.4051 28.8514C40.732 28.2965 42.9956 29.6486 43.5894 31.9804C44.0476 33.7766 44.4811 35.5805 44.8864 37.3893C44.9866 37.836 45.1876 37.8874 45.5795 37.7922C46.858 37.4812 48.1309 37.1638 49.4711 37.2142C53.4024 37.3616 56.8359 39.9319 57.856 43.6198C58.4206 45.6589 58.9361 47.7182 59.3331 49.7943C59.8678 52.5917 59.0016 55.0211 56.9129 57.0303C56.3016 57.6178 55.4238 57.612 54.8667 57.0507C54.329 56.5086 54.3415 55.6675 54.9353 55.0928C56.5171 53.5641 56.9721 51.7615 56.4413 49.6838C56.0354 48.0976 55.671 46.5006 55.2862 44.9084C54.4027 41.2538 51.1462 39.3115 47.3965 40.1813C46.4927 40.3907 45.6047 40.7214 44.6375 40.5584C43.3357 40.3395 42.5334 39.6304 42.2332 38.3808C41.7779 36.4875 41.3292 34.5936 40.8665 32.7021C40.6731 31.9101 40.0898 31.4505 39.3627 31.4794C38.3859 31.5182 37.7407 32.361 37.9695 33.3384C38.4025 35.1883 38.8543 37.0346 39.2977 38.883C39.9298 41.5121 40.5684 44.1397 41.1837 46.7728C41.255 47.0766 41.2825 47.4347 41.1893 47.7241C40.8962 48.6301 39.8649 48.9405 39.0175 48.3958C37.83 47.6323 36.6708 46.8278 35.4711 46.0825C35.1275 45.8693 34.6927 45.7084 34.2893 45.688C33.5152 45.6489 32.8588 46.1842 32.6598 46.8806C32.4432 47.6376 32.703 48.3318 33.4034 48.7645C35.3781 49.9867 37.3634 51.1922 39.339 52.4142C39.993 52.8179 40.6409 53.2325 41.2696 53.6728C42.3161 54.4058 43.0481 55.378 43.4358 56.58C43.6731 57.3149 43.8928 58.0577 44.0795 58.8065C44.2757 59.5902 43.8255 60.3188 43.0729 60.5123C42.301 60.7113 41.5649 60.2651 41.3433 59.4579C41.2167 58.9955 41.094 58.5331 40.9831 58.0669C40.7143 56.9378 40.057 56.0987 39.0522 55.4883C36.6781 54.0452 34.312 52.5906 31.9471 51.1329C30.1818 50.0449 29.3708 48.0655 29.9136 46.2086C30.4745 44.2853 32.2239 42.9648 34.288 42.925C35.2345 42.9067 36.1023 43.1727 36.8915 43.6759C37.1113 43.8163 37.3327 43.9593 37.6656 44.1731Z" fill="black"/>
</g>
<defs>
<clipPath id="clip0_863_10019">
<rect width="33.8299" height="34.4364" fill="white" transform="matrix(0.972812 -0.231596 0.237179 0.971466 22 30.5469)"/>
</clipPath>
</defs>
</svg>
