<svg width="64" height="64" viewBox="0 0 64 64" fill="none" xmlns="http://www.w3.org/2000/svg">
<path d="M30.5858 21.0858C30.7775 20.894 30.9985 20.7494 31.2344 20.6518C31.9594 20.3518 32.8249 20.4965 33.4142 21.0858L38.9142 26.5858C39.6953 27.3668 39.6953 28.6332 38.9142 29.4142C38.1332 30.1953 36.8668 30.1953 36.0858 29.4142L34 27.3284V48C34 49.1046 33.1046 50 32 50C30.8954 50 30 49.1046 30 48V27.3284L27.9142 29.4142C27.1332 30.1953 25.8668 30.1953 25.0858 29.4142C24.3047 28.6332 24.3047 27.3668 25.0858 26.5858L30.5858 21.0858Z" fill="black"/>
<path fill-rule="evenodd" clip-rule="evenodd" d="M13 6C13 2.68629 15.6863 0 19 0H45C48.3137 0 51 2.68629 51 6V58C51 61.3137 48.3137 64 45 64H19C15.6863 64 13 61.3137 13 58V6ZM19 4C17.8954 4 17 4.89543 17 6V58C17 59.1046 17.8954 60 19 60H45C46.1046 60 47 59.1046 47 58V6C47 4.89543 46.1046 4 45 4H41V5C41 6.10457 40.1046 7 39 7H25C23.8954 7 23 6.10457 23 5V4H19Z" fill="black"/>
</svg>
