<svg width="24" height="24" viewBox="0 0 24 24" fill="none" xmlns="http://www.w3.org/2000/svg">
<path d="M23.3893 6.02055C23.2908 5.64177 23.098 5.29154 22.8274 4.99988C22.5569 4.70821 22.2166 4.4838 21.8357 4.34589C18.1714 2.98973 12.3214 3 12 3C11.6786 3 5.82857 2.98973 2.16429 4.34589C1.78344 4.4838 1.44314 4.70821 1.17256 4.99988C0.901982 5.29154 0.709192 5.64177 0.610714 6.02055C0.332143 7.03767 0 8.90754 0 12C0 15.0925 0.332143 16.9623 0.610714 17.9795C0.709192 18.3582 0.901982 18.7085 1.17256 19.0001C1.44314 19.2918 1.78344 19.5162 2.16429 19.6541C5.67857 20.9589 11.1857 21 11.925 21H12.075C12.8143 21 18.3214 20.9589 21.8357 19.6541C22.2166 19.5162 22.5569 19.2918 22.8274 19.0001C23.098 18.7085 23.2908 18.3582 23.3893 17.9795C23.6679 16.9623 24 15.0925 24 12C24 8.90754 23.6679 7.03767 23.3893 6.02055V6.02055ZM15.6643 12.339L10.5214 15.6267C10.4532 15.6748 10.3704 15.7001 10.2857 15.6986C10.2147 15.6961 10.1452 15.6786 10.0821 15.6473C10.0137 15.6131 9.95638 15.5614 9.91667 15.4979C9.87695 15.4345 9.85635 15.3617 9.85714 15.2877V8.71233C9.85635 8.63831 9.87695 8.56553 9.91667 8.50206C9.95638 8.43858 10.0137 8.3869 10.0821 8.35274C10.1505 8.31779 10.2274 8.30124 10.3047 8.30486C10.3821 8.30848 10.457 8.33213 10.5214 8.37329L15.6643 11.661C15.724 11.6971 15.7733 11.7471 15.8074 11.8064C15.8415 11.8657 15.8595 11.9323 15.8595 12C15.8595 12.0677 15.8415 12.1343 15.8074 12.1936C15.7733 12.2529 15.724 12.3029 15.6643 12.339Z" fill="black"/>
</svg>
